<?xml version="1.0" encoding="UTF-8" standalone="no"?>
<!-- Created with Inkscape (http://www.inkscape.org/) -->

<svg
   xmlns:dc="http://purl.org/dc/elements/1.1/"
   xmlns:cc="http://creativecommons.org/ns#"
   xmlns:rdf="http://www.w3.org/1999/02/22-rdf-syntax-ns#"
   xmlns:svg="http://www.w3.org/2000/svg"
   xmlns="http://www.w3.org/2000/svg"
   version="1.1"
   width="566.92914"
   height="566.92914"
   id="svg2984">
  <defs
     id="defs2986" />
  <metadata
     id="metadata2989">
    <rdf:RDF>
      <cc:Work
         rdf:about="">
        <dc:format>image/svg+xml</dc:format>
        <dc:type
           rdf:resource="http://purl.org/dc/dcmitype/StillImage" />
        <dc:title></dc:title>
      </cc:Work>
    </rdf:RDF>
  </metadata>
  <g
     transform="translate(0,-485.43305)"
     id="layer1">
    <path
       d="m 71.277012,905.17883 c 46.381998,72.24799 126.293598,115.90627 212.218798,115.90627 85.92515,0 165.80138,-43.62278 212.21871,-115.90627 l -0.0312,0 -424.406308,0 z M 342.58951,699.21008 c 30.57875,0 55.59376,25.01501 55.59376,55.59375 l 0,132.8125 -13.5625,0 0,-82.53125 -77.53126,0 0,-13.5625 77.53126,0 0,-36.71875 c 0,-23.10236 -18.92889,-42.03125 -42.03126,-42.03125 -23.1024,0 -42,18.92889 -42,42.03125 l 0,132.8125 -13.5937,0 0,-132.8125 c 0,-30.57874 25.015,-55.59375 55.5937,-55.59375 z m -118.1875,0 c 30.5788,0 55.5938,25.01501 55.5938,55.59375 l 0,132.8125 -13.5938,0 0,-82.53125 -77.5,0 0,-13.5625 77.5,0 0,-36.71875 c 0,-23.10236 -18.8977,-42.03125 -42,-42.03125 -23.1023,0 -42.0312,18.92889 -42.0312,42.03125 l 0,132.8125 -13.5625,0 0,-132.8125 c 0,-30.57874 25.0149,-55.59375 55.5937,-55.59375 z m 59.0625,-175.71875 -212.531198,368.09375 0.031,0 425.031158,0 -212.53126,-368.09375 z m -11.875,-6.4375 c -134.3871,6.3066 -240.264698,117.17682 -240.281198,251.84375 0,39.72048 9.3539,79.40821 28.0625,115.65625 l 212.218698,-367.5 z m 23.8125,-0.0937 0,0.0625 212.21876,367.5 c 18.70866,-36.24803 28.0625,-75.93578 28.0625,-115.65625 0,-134.6811 -105.88361,-245.56373 -240.28126,-251.90625 z m -11.9375,-13.8125 c 146.62205,0 265.75001,119.09253 265.75001,265.75 0,45.8504 -11.88485,91.7372 -35.625,132.875 -47.44488,82.16934 -135.23525,132.87497 -230.12501,132.87497 -94.8897,0 -182.7113,-50.70563 -230.156198,-132.87497 -23.7402,-41.1378 -35.593694,-87.0246 -35.593694,-132.875 0,-146.65747 119.127792,-265.75 265.749892,-265.75 z"
       id="1000"
       style="fill:#000000;fill-opacity:1;fill-rule:evenodd;stroke:none" />
  </g>
</svg>
