<?xml version="1.0" encoding="UTF-8" standalone="no"?>
<!DOCTYPE svg PUBLIC "-//W3C//DTD SVG 1.1//EN" "http://www.w3.org/Graphics/SVG/1.1/DTD/svg11.dtd">
<svg width="100%" height="100%" viewBox="0 0 418 418" version="1.1" xmlns="http://www.w3.org/2000/svg" xmlns:xlink="http://www.w3.org/1999/xlink" xml:space="preserve" xmlns:serif="http://www.serif.com/" style="fill-rule:evenodd;clip-rule:evenodd;stroke-linejoin:round;stroke-miterlimit:1.41421;">
    <g transform="matrix(0.783237,-0.00189675,0.00189675,0.783237,-18.1398,-16.3787)">
        <circle cx="287.629" cy="289.561" r="259.323" style="fill:rgb(21,76,201);"/>
    </g>
    <g id="_1000" serif:id="1000" transform="matrix(0.783237,-0.00189675,0.00189675,0.783237,-14.8291,-393.042)">
        <path d="M71.277,905.179C117.659,977.427 197.571,1021.09 283.496,1021.09C369.421,1021.09 449.297,977.462 495.715,905.179L495.683,905.179L71.277,905.179ZM342.59,699.21C373.168,699.21 398.183,724.225 398.183,754.804L398.183,887.616L384.621,887.616L384.621,805.085L307.09,805.085L307.09,791.523L384.621,791.523L384.621,754.804C384.621,731.701 365.692,712.773 342.59,712.773C319.487,712.773 300.59,731.701 300.59,754.804L300.59,887.616L286.996,887.616L286.996,754.804C286.996,724.225 312.011,699.21 342.59,699.21ZM224.402,699.21C254.981,699.21 279.996,724.225 279.996,754.804L279.996,887.616L266.402,887.616L266.402,805.085L188.902,805.085L188.902,791.523L266.402,791.523L266.402,754.804C266.402,731.701 247.504,712.773 224.402,712.773C201.3,712.773 182.371,731.701 182.371,754.804L182.371,887.616L168.808,887.616L168.808,754.804C168.808,724.225 193.823,699.21 224.402,699.21ZM283.465,523.491L70.933,891.585L495.995,891.585L283.464,523.491L283.465,523.491ZM271.59,517.054C137.202,523.36 31.325,634.231 31.308,768.898C31.308,808.618 40.662,848.306 59.371,884.554L271.59,517.054ZM295.402,516.96L295.402,517.023L507.621,884.523C526.329,848.275 535.683,808.587 535.683,768.866C535.683,634.185 429.8,523.303 295.402,516.96ZM283.465,503.148C430.087,503.148 549.215,622.24 549.215,768.898C549.215,814.748 537.33,860.635 513.59,901.773C466.145,983.942 378.354,1034.65 283.465,1034.65C188.575,1034.65 100.753,983.942 53.308,901.773C29.568,860.635 17.715,814.748 17.715,768.898C17.715,622.24 136.842,503.148 283.465,503.148Z" style="fill:rgb(186,186,186);"/>
    </g>
</svg>
