<?xml version="1.0" encoding="iso-8859-1"?>
<!-- Generator: Adobe Illustrator 21.0.2, SVG Export Plug-In . SVG Version: 6.00 Build 0)  -->
<svg xmlns="http://www.w3.org/2000/svg" xmlns:xlink="http://www.w3.org/1999/xlink" version="1.1" id="Layer_1" x="0px" y="0px" viewBox="0 0 40 40" style="enable-background:new 0 0 40 40;" xml:space="preserve">
<g>
	<g>
		<rect x="2.5" y="2.5" style="fill:#FFFFFF;" width="35" height="35"/>
		<g>
			<path style="fill:#4788C7;" d="M37,3v34H3V3H37 M38,2H2v36h36V2L38,2z"/>
		</g>
	</g>
	<g>
		<rect x="2.5" y="2.5" style="fill:#B6DCFE;" width="35" height="5"/>
		<g>
			<path style="fill:#4788C7;" d="M37,3v4H3V3H37 M38,2H2v6h36V2L38,2z"/>
		</g>
	</g>
	<rect x="3" y="34" style="fill:#B6DCFE;" width="34" height="3"/>
	<path style="fill:#4788C7;" d="M20.722,17.334h-4.188v3.367h3.859v1.57h-3.859v4.688h-1.859V15.756h6.047V17.334z"/>
	<path style="fill:#4788C7;" d="M27.151,20.686c-0.219-0.172-0.534-0.258-0.945-0.258c-0.536,0-0.984,0.242-1.344,0.727   s-0.539,1.144-0.539,1.977v3.828h-1.813v-8h1.813v1.648h0.031c0.177-0.563,0.449-1.001,0.816-1.316s0.777-0.473,1.23-0.473   c0.328,0,0.578,0.05,0.75,0.148V20.686z"/>
</g>
</svg>
