<?xml version="1.0" encoding="iso-8859-1"?>
<!-- Generator: Adobe Illustrator 21.0.2, SVG Export Plug-In . SVG Version: 6.00 Build 0)  -->
<svg xmlns="http://www.w3.org/2000/svg" xmlns:xlink="http://www.w3.org/1999/xlink" version="1.1" id="Layer_1" x="0px" y="0px" viewBox="0 0 40 40" style="enable-background:new 0 0 40 40;" xml:space="preserve">
<g>
	<g>
		<rect x="2.5" y="2.5" style="fill:#FFFFFF;" width="35" height="35"/>
		<g>
			<path style="fill:#4788C7;" d="M37,3v34H3V3H37 M38,2H2v36h36V2L38,2z"/>
		</g>
	</g>
	<g>
		<rect x="2.5" y="2.5" style="fill:#B6DCFE;" width="35" height="5"/>
		<g>
			<path style="fill:#4788C7;" d="M37,3v4H3V3H37 M38,2H2v6h36V2L38,2z"/>
		</g>
	</g>
	<rect x="3" y="34" style="fill:#B6DCFE;" width="34" height="3"/>
	<path style="fill:#4788C7;" d="M21.515,26.959h-1.844v-7.25c0-0.594,0.036-1.32,0.109-2.18h-0.031   c-0.114,0.489-0.216,0.841-0.305,1.055l-3.344,8.375h-1.281l-3.352-8.313c-0.094-0.245-0.192-0.617-0.297-1.117H11.14   c0.042,0.448,0.063,1.18,0.063,2.195v7.234H9.483V15.756h2.617l2.945,7.461c0.224,0.573,0.37,1,0.438,1.281h0.039   c0.192-0.589,0.349-1.026,0.469-1.313l3-7.43h2.523V26.959z"/>
	<path style="fill:#4788C7;" d="M27.616,27.146c-1.234,0-2.22-0.374-2.957-1.121s-1.105-1.738-1.105-2.973   c0-1.344,0.384-2.394,1.152-3.148c0.769-0.755,1.804-1.133,3.105-1.133c1.25,0,2.224,0.367,2.922,1.102s1.047,1.753,1.047,3.055   c0,1.276-0.376,2.298-1.129,3.066S28.887,27.146,27.616,27.146z M27.702,20.217c-0.708,0-1.269,0.247-1.68,0.742   s-0.617,1.177-0.617,2.047c0,0.839,0.208,1.499,0.625,1.98s0.974,0.723,1.672,0.723c0.714,0,1.262-0.237,1.645-0.711   s0.574-1.148,0.574-2.023c0-0.88-0.191-1.56-0.574-2.039S28.416,20.217,27.702,20.217z"/>
</g>
</svg>
