<?xml version="1.0" encoding="iso-8859-1"?>
<!-- Generator: Adobe Illustrator 21.0.2, SVG Export Plug-In . SVG Version: 6.00 Build 0)  -->
<svg xmlns="http://www.w3.org/2000/svg" xmlns:xlink="http://www.w3.org/1999/xlink" version="1.1" id="Layer_1" x="0px" y="0px" viewBox="0 0 40 40" style="enable-background:new 0 0 40 40;" xml:space="preserve">
<g>
	<g>
		<rect x="2.5" y="2.5" style="fill:#FFFFFF;" width="35" height="35"/>
		<g>
			<path style="fill:#4788C7;" d="M37,3v34H3V3H37 M38,2H2v36h36V2L38,2z"/>
		</g>
	</g>
	<g>
		<rect x="2.5" y="2.5" style="fill:#B6DCFE;" width="35" height="5"/>
		<g>
			<path style="fill:#4788C7;" d="M37,3v4H3V3H37 M38,2H2v6h36V2L38,2z"/>
		</g>
	</g>
	<rect x="3" y="34" style="fill:#B6DCFE;" width="34" height="3"/>
	<path style="fill:#4788C7;" d="M12.116,26.514V24.6c0.172,0.156,0.376,0.297,0.613,0.422s0.488,0.23,0.754,0.316   s0.531,0.152,0.797,0.199s0.511,0.07,0.734,0.07c0.781,0,1.363-0.13,1.746-0.391s0.574-0.638,0.574-1.133   c0-0.266-0.063-0.496-0.191-0.691s-0.306-0.374-0.535-0.535s-0.499-0.316-0.809-0.465s-0.642-0.304-0.996-0.465   c-0.38-0.203-0.734-0.409-1.063-0.617s-0.613-0.438-0.855-0.691s-0.433-0.538-0.57-0.855s-0.207-0.69-0.207-1.117   c0-0.526,0.118-0.983,0.355-1.371s0.55-0.708,0.938-0.961s0.829-0.44,1.324-0.563s1-0.184,1.516-0.184   c1.172,0,2.026,0.133,2.563,0.398v1.836c-0.636-0.458-1.453-0.688-2.453-0.688c-0.276,0-0.551,0.026-0.824,0.078   s-0.519,0.138-0.734,0.258s-0.392,0.273-0.527,0.461s-0.203,0.414-0.203,0.68c0,0.25,0.052,0.466,0.156,0.648   s0.257,0.349,0.457,0.5s0.445,0.298,0.734,0.441s0.624,0.298,1.004,0.465c0.391,0.203,0.759,0.417,1.105,0.641   s0.651,0.472,0.914,0.742s0.472,0.571,0.625,0.902s0.23,0.707,0.23,1.129c0,0.567-0.114,1.047-0.344,1.438   s-0.538,0.708-0.926,0.953s-0.835,0.422-1.34,0.531s-1.039,0.164-1.602,0.164c-0.188,0-0.418-0.015-0.691-0.043   s-0.554-0.07-0.84-0.125s-0.558-0.121-0.813-0.199S12.272,26.612,12.116,26.514z"/>
	<path style="fill:#4788C7;" d="M28.116,26.959h-1.813v-1.266h-0.031c-0.526,0.969-1.344,1.453-2.453,1.453   c-1.891,0-2.836-1.136-2.836-3.406v-4.781h1.813v4.594c0,1.438,0.555,2.156,1.664,2.156c0.536,0,0.978-0.198,1.324-0.594   c0.347-0.396,0.52-0.914,0.52-1.555v-4.602h1.813V26.959z"/>
</g>
</svg>
