<?xml version="1.0" encoding="iso-8859-1"?>
<!-- Generator: Adobe Illustrator 21.0.2, SVG Export Plug-In . SVG Version: 6.00 Build 0)  -->
<svg xmlns="http://www.w3.org/2000/svg" xmlns:xlink="http://www.w3.org/1999/xlink" version="1.1" id="Layer_1" x="0px" y="0px" viewBox="0 0 40 40" style="enable-background:new 0 0 40 40;" xml:space="preserve">
<g>
</g>
<g>
	<g>
		<rect x="2.5" y="2.5" style="fill:#FFFFFF;" width="35" height="35"/>
		<g>
			<path style="fill:#4788C7;" d="M37,3v34H3V3H37 M38,2H2v36h36V2L38,2z"/>
		</g>
	</g>
	<g>
		<rect x="2.5" y="2.5" style="fill:#B6DCFE;" width="35" height="5"/>
		<g>
			<path style="fill:#4788C7;" d="M37,3v4H3V3H37 M38,2H2v6h36V2L38,2z"/>
		</g>
	</g>
	<rect x="3" y="34" style="fill:#B6DCFE;" width="34" height="3"/>
	<path style="fill:#4788C7;" d="M19.772,17.334h-3.219v9.625h-1.859v-9.625h-3.211v-1.578h8.289V17.334z"/>
	<path style="fill:#4788C7;" d="M28.319,26.959h-1.813v-4.375c0-1.583-0.528-2.375-1.586-2.375c-0.531,0-0.979,0.229-1.344,0.688   s-0.547,1.044-0.547,1.758v4.305h-1.82V15.115h1.82v5.172h0.031c0.604-1.011,1.469-1.516,2.594-1.516   c1.776,0,2.664,1.086,2.664,3.258V26.959z"/>
</g>
</svg>
