<?xml version="1.0" encoding="iso-8859-1"?>
<!-- Generator: Adobe Illustrator 21.0.2, SVG Export Plug-In . SVG Version: 6.00 Build 0)  -->
<svg xmlns="http://www.w3.org/2000/svg" xmlns:xlink="http://www.w3.org/1999/xlink" version="1.1" id="Layer_1" x="0px" y="0px" viewBox="0 0 40 40" style="enable-background:new 0 0 40 40;" xml:space="preserve">
<g>
	<rect x="2.5" y="2.5" style="fill:#FFFFFF;" width="35" height="35"/>
	<g>
		<path style="fill:#4788C7;" d="M37,3v34H3V3H37 M38,2H2v36h36V2L38,2z"/>
	</g>
</g>
<g>
	<rect x="2.5" y="2.5" style="fill:#B6DCFE;" width="35" height="5"/>
	<g>
		<path style="fill:#4788C7;" d="M37,3v4H3V3H37 M38,2H2v6h36V2L38,2z"/>
	</g>
</g>
<rect x="3" y="34" style="fill:#B6DCFE;" width="34" height="3"/>
<path style="fill:#4788C7;" d="M20.39,17.334h-3.219v9.625h-1.859v-9.625h-3.211v-1.578h8.289V17.334z"/>
<path style="fill:#4788C7;" d="M27.546,26.959h-1.813v-1.266h-0.031c-0.526,0.969-1.344,1.453-2.453,1.453  c-1.891,0-2.836-1.136-2.836-3.406v-4.781h1.813v4.594c0,1.438,0.555,2.156,1.664,2.156c0.536,0,0.978-0.198,1.324-0.594  s0.52-0.914,0.52-1.555v-4.602h1.813V26.959z"/>
</svg>
