<?xml version="1.0" encoding="iso-8859-1"?>
<!-- Generator: Adobe Illustrator 21.0.2, SVG Export Plug-In . SVG Version: 6.00 Build 0)  -->
<svg xmlns="http://www.w3.org/2000/svg" xmlns:xlink="http://www.w3.org/1999/xlink" version="1.1" id="Layer_1" x="0px" y="0px" viewBox="0 0 40 40" style="enable-background:new 0 0 40 40;" xml:space="preserve">
<g>
	<rect x="2.5" y="2.5" style="fill:#FFFFFF;" width="35" height="35"/>
	<g>
		<path style="fill:#4788C7;" d="M37,3v34H3V3H37 M38,2H2v36h36V2L38,2z"/>
	</g>
</g>
<g>
	<rect x="2.5" y="2.5" style="fill:#B6DCFE;" width="35" height="5"/>
	<g>
		<path style="fill:#4788C7;" d="M37,3v4H3V3H37 M38,2H2v6h36V2L38,2z"/>
	</g>
</g>
<rect x="3" y="34" style="fill:#B6DCFE;" width="34" height="3"/>
<path style="fill:#4788C7;" d="M23.78,15.756l-3.07,11.203h-2.102l-2.133-7.836c-0.089-0.333-0.144-0.698-0.164-1.094H16.28  c-0.026,0.37-0.089,0.729-0.188,1.078l-2.141,7.852h-2.148L8.671,15.756h2.039l2.031,8.203c0.083,0.344,0.136,0.703,0.156,1.078  h0.039c0.021-0.266,0.094-0.625,0.219-1.078l2.297-8.203h1.914l2.125,8.266c0.073,0.281,0.128,0.614,0.164,1h0.031  c0.016-0.261,0.075-0.604,0.18-1.031l1.992-8.234H23.78z"/>
<path style="fill:#4788C7;" d="M31.499,23.452h-5.453c0.021,0.739,0.249,1.31,0.684,1.711s1.032,0.602,1.793,0.602  c0.854,0,1.638-0.255,2.352-0.766v1.461c-0.729,0.458-1.692,0.688-2.891,0.688c-1.177,0-2.101-0.363-2.77-1.09  s-1.004-1.749-1.004-3.066c0-1.245,0.368-2.259,1.105-3.043s1.652-1.176,2.746-1.176s1.94,0.352,2.539,1.055s0.898,1.68,0.898,2.93  V23.452z M29.749,22.17c-0.005-0.651-0.159-1.157-0.461-1.52s-0.719-0.543-1.25-0.543c-0.521,0-0.962,0.19-1.324,0.57  s-0.585,0.878-0.668,1.492H29.749z"/>
</svg>
